<svg xmlns="http://www.w3.org/2000/svg" width="19.793" height="19.793" viewBox="0 0 19.793 19.793">
  <g id="Alert" transform="translate(0)">
    <path id="Trazado_48470" data-name="Trazado 48470" d="M12.246,4a6.6,6.6,0,0,0-6.6,6.6v2.28L4.085,16a.814.814,0,0,0,.037.8.823.823,0,0,0,.7.392H19.668a.823.823,0,0,0,.7-.392.814.814,0,0,0,.037-.8l-1.563-3.126V10.6A6.6,6.6,0,0,0,12.246,4Zm0,17.319a3.3,3.3,0,0,1-3.2-2.474h6.391A3.3,3.3,0,0,1,12.246,21.319Z" transform="translate(-2.349 -2.351)" fill="#fff"/>
    <path id="Trazado_48471" data-name="Trazado 48471" d="M0,0H19.793V19.793H0Z" transform="translate(0)" fill="none"/>
  </g>
</svg>
