<svg id="Arrow_Exit" data-name="Arrow Exit" xmlns="http://www.w3.org/2000/svg" width="22.55" height="22.55" viewBox="0 0 22.55 22.55">
  <path id="Trazado_49394" data-name="Trazado 49394" d="M17.911,22.985a.564.564,0,1,0,0-1.128H10.583A2.256,2.256,0,0,1,8.328,19.6v-9.02a2.256,2.256,0,0,1,2.255-2.255h7.329a.564.564,0,1,0,0-1.128H10.583A3.38,3.38,0,0,0,7.2,10.583V19.6a3.38,3.38,0,0,0,3.383,3.383ZM19.2,10.747a.564.564,0,0,1,.8,0l3.946,3.946a.564.564,0,0,1,0,.8L20,19.438a.565.565,0,0,1-.8-.8l2.983-2.983H12.274a.564.564,0,1,1,0-1.128h9.913L19.2,11.546A.564.564,0,0,1,19.2,10.747Z" transform="translate(-3.817 -3.817)" fill="#b7a44f"/>
  <path id="Trazado_49395" data-name="Trazado 49395" d="M0,0H22.55V22.55H0Z" fill="none"/>
</svg>
