<svg id="Building_Bank" data-name="Building Bank" xmlns="http://www.w3.org/2000/svg" width="25.888" height="25.888" viewBox="0 0 25.888 25.888">
  <path id="Trazado_49426" data-name="Trazado 49426" d="M15.643,9.739A1.213,1.213,0,1,0,14.43,8.526,1.212,1.212,0,0,0,15.643,9.739ZM16.835,4a1.9,1.9,0,0,0-2.384,0l-8.09,6.58a1.347,1.347,0,0,0,.847,2.395h.345v6.8a2.971,2.971,0,0,0-1.618,2.643v1.079a.808.808,0,0,0,.809.809h17.8a.808.808,0,0,0,.809-.809V22.413a2.971,2.971,0,0,0-1.618-2.643v-6.8h.34a1.348,1.348,0,0,0,.852-2.395ZM15.476,5.257a.268.268,0,0,1,.34,0l7.5,6.1H7.968Zm6.639,14.19H20.5V12.975h1.618Zm-3.236,0H16.452V12.975h2.427Zm-4.045,0H12.407V12.975h2.427Zm7.551,1.618a1.349,1.349,0,0,1,1.348,1.348v.27H7.553v-.27A1.349,1.349,0,0,1,8.9,21.065Zm-11.6-1.618H9.171V12.975h1.618Z" transform="translate(-2.699 -1.649)" fill="#b7a44f"/>
  <path id="Trazado_49427" data-name="Trazado 49427" d="M0,0H25.888V25.888H0Z" fill="none"/>
</svg>
