<svg id="Data_Trending" data-name="Data Trending" xmlns="http://www.w3.org/2000/svg" width="23.669" height="23.669" viewBox="0 0 23.669 23.669">
  <path id="Trazado_49429" data-name="Trazado 49429" d="M6.74,6a.739.739,0,0,1,.74.74V21.533a.739.739,0,0,0,.74.74H23.012a.74.74,0,0,1,0,1.479H8.219A2.216,2.216,0,0,1,6,21.533V6.74A.739.739,0,0,1,6.74,6Zm11.835,4.438a.74.74,0,1,1,0-1.479h4.438a.739.739,0,0,1,.74.74V14.25a.74.74,0,1,1-1.479,0V11.483l-5.395,5.395a.735.735,0,0,1-1.045,0L13.4,14.442l-3.176,3.176a.739.739,0,0,1-1.045-1.045l3.7-3.7a.735.735,0,0,1,1.045,0l2.436,2.436,4.872-4.872Z" transform="translate(-3.041 -3.041)" fill=""/>
  <path id="Trazado_49430" data-name="Trazado 49430" d="M0,0H23.669V23.669H0Z" fill="none"/>
</svg>
