<svg xmlns="http://www.w3.org/2000/svg" xmlns:xlink="http://www.w3.org/1999/xlink" width="36" height="36" viewBox="0 0 36 36">
  <defs>
    <clipPath id="clip-path">
      <circle id="Elipse_152" data-name="Elipse 152" cx="18" cy="18" r="18" transform="translate(0.361 0.361)" fill="#0f214b"/>
    </clipPath>
  </defs>
  <g id="Enmascarar_grupo_1" data-name="Enmascarar grupo 1" transform="translate(-0.361 -0.361)" clip-path="url(#clip-path)">
    <g id="Layer_2" data-name="Layer 2">
      <g id="_61.airbnb" data-name="61.airbnb">
        <circle id="background" cx="18" cy="18" r="18" transform="translate(0.361 0.361)" fill="#f44336"/>
        <path id="Trazado_49466" data-name="Trazado 49466" d="M28.927,34.635a6.722,6.722,0,0,1-3.887,2.473.512.512,0,0,1-.239.043,3.782,3.782,0,0,1-4.2-3.827c0-1.887,2.423-6.067,4.988-11.461C26.27,20.45,26.968,19,28.927,19s2.631,1.385,3.457,3.091c4.873,9.712,4.873,10.248,4.873,11.219a3.911,3.911,0,0,1-1.337,2.961c-1.574,1.364-4.208,1.471-6.985-1.636ZM36.1,33.31c0-1.49-2.277-5.5-4.756-10.719-.663-1.328-1.029-2.454-2.421-2.454-1.2,0-1.617.758-2.318,2.208-2.49,5.251-4.858,9.406-4.858,10.966a2.649,2.649,0,0,0,3.155,2.674,5.925,5.925,0,0,0,3.268-2.208c-8.373-10.827,9.927-10.87,1.507,0C33.1,37.659,36.1,35.762,36.1,33.31Zm-9.09-4.524a7.7,7.7,0,0,0,1.895,4.1,7.7,7.7,0,0,0,1.895-4.1A1.9,1.9,0,1,0,27.014,28.786Z" transform="translate(-10.747 -9.91)" fill="#fff"/>
      </g>
    </g>
  </g>
</svg>
