<svg id="Grid" xmlns="http://www.w3.org/2000/svg" width="24" height="24" viewBox="0 0 24 24">
  <path id="Trazado_48478" data-name="Trazado 48478" d="M8.25,6A2.247,2.247,0,0,0,6,8.25v3A2.247,2.247,0,0,0,8.25,13.5h3a2.247,2.247,0,0,0,2.25-2.25v-3A2.247,2.247,0,0,0,11.25,6ZM7.5,8.25a.749.749,0,0,1,.75-.75h3a.749.749,0,0,1,.75.75v3a.749.749,0,0,1-.75.75h-3a.749.749,0,0,1-.75-.75ZM18.75,6A2.247,2.247,0,0,0,16.5,8.25v3a2.247,2.247,0,0,0,2.25,2.25h3A2.247,2.247,0,0,0,24,11.25v-3A2.247,2.247,0,0,0,21.75,6ZM18,8.25a.749.749,0,0,1,.75-.75h3a.749.749,0,0,1,.75.75v3a.749.749,0,0,1-.75.75h-3a.749.749,0,0,1-.75-.75ZM6,18.75A2.247,2.247,0,0,1,8.25,16.5h3a2.247,2.247,0,0,1,2.25,2.25v3A2.247,2.247,0,0,1,11.25,24h-3A2.247,2.247,0,0,1,6,21.75ZM8.25,18a.749.749,0,0,0-.75.75v3a.749.749,0,0,0,.75.75h3a.749.749,0,0,0,.75-.75v-3a.749.749,0,0,0-.75-.75Zm10.5-1.5a2.247,2.247,0,0,0-2.25,2.25v3A2.247,2.247,0,0,0,18.75,24h3A2.247,2.247,0,0,0,24,21.75v-3a2.247,2.247,0,0,0-2.25-2.25ZM18,18.75a.749.749,0,0,1,.75-.75h3a.749.749,0,0,1,.75.75v3a.749.749,0,0,1-.75.75h-3a.749.749,0,0,1-.75-.75Z" transform="translate(-3 -3)" fill=""/>
  <path id="Trazado_48479" data-name="Trazado 48479" d="M0,0H24V24H0Z" fill="none"/>
</svg>
