<svg id="Home" xmlns="http://www.w3.org/2000/svg" width="21.961" height="23.669" viewBox="0 0 21.961 23.669">
  <path id="Trazado_48472" data-name="Trazado 48472" d="M12.565,4.21a.856.856,0,0,1,1.122,0L21.193,10.6a3.091,3.091,0,0,1,1.059,2.365v9a1.916,1.916,0,0,1-1.825,2h-3.65a1.916,1.916,0,0,1-1.825-2V15.976H11.3v5.988a1.916,1.916,0,0,1-1.825,2H5.825a1.916,1.916,0,0,1-1.825-2v-9A3.091,3.091,0,0,1,5.059,10.6Zm.561,2.051L6.177,12.174a1.029,1.029,0,0,0-.351.788v9h3.65V15.976a1.916,1.916,0,0,1,1.825-2h3.65a1.916,1.916,0,0,1,1.825,2v5.988h3.65v-9a1.029,1.029,0,0,0-.351-.788Z" transform="translate(-2.145 -2.145)" fill="currentColor"/>
  <path id="Trazado_48473" data-name="Trazado 48473" d="M0,0H21.961V23.669H0Z" fill="none"/>
</svg>
