<svg id="jdv-logo" xmlns="http://www.w3.org/2000/svg" width="147" height="98.437" viewBox="0 0 147 98.437">
  <path id="Trazado_49401" data-name="Trazado 49401" d="M77.29,889.254l5.588.054.067-5.588-5.6-.06Z" transform="translate(-71.946 -822.56)" fill="#b7a34f"/>
  <path id="Trazado_49402" data-name="Trazado 49402" d="M226.386,998.508a3.14,3.14,0,0,0-.886-4.718,3.074,3.074,0,0,0-3.929-.118,41.6,41.6,0,0,0-5.3,7.43,3.074,3.074,0,0,0,1.393,3.676,3.141,3.141,0,0,0,4.749-.7q.124-.172-.006-.29l-1.451-1.463c-.1-.1-.192-.1-.273.019q-.891,1.146-1.662.6a.822.822,0,0,1-.36-.994,30.86,30.86,0,0,1,2.152-3.215,30.533,30.533,0,0,1,2.341-3.08.823.823,0,0,1,1.057.017q.773.552-.023,1.765c-.083.116-.059.2.072.266l1.854.9c.1.058.194.028.277-.087Z" transform="translate(-201.157 -924.356)" fill="#b7a34f"/>
  <path id="Trazado_49403" data-name="Trazado 49403" d="M367.244,1076.3a3.162,3.162,0,0,0-4.017.36,4.432,4.432,0,0,0-.8,1.008q-.423.684-1.589,2.846t-1.5,2.89a4.447,4.447,0,0,0-.405,1.221,3.657,3.657,0,0,0,5.922,3.194,4.506,4.506,0,0,0,.8-1.009q.423-.684,1.589-2.845t1.5-2.89a4.5,4.5,0,0,0,.405-1.22,3.163,3.163,0,0,0-1.906-3.554Zm-.569,3.01a54.128,54.128,0,0,1-3.634,6.739.993.993,0,0,1-1.634-.88,25.654,25.654,0,0,1,1.7-3.434,25.962,25.962,0,0,1,1.936-3.306.994.994,0,0,1,1.635.881Z" transform="translate(-334.056 -1001.373)" fill="#b7a34f"/>
  <path id="Trazado_49404" data-name="Trazado 49404" d="M516.581,1135.907l-2.927-1.117a.17.17,0,0,0-.249.111l-4.554,11.923a.17.17,0,0,0,.112.249l2,.766a.171.171,0,0,0,.25-.111l1.724-4.517a.1.1,0,0,1,.15-.067l.686.262-.389,5.192a.211.211,0,0,0,.144.221l2.168.828c.109.041.161-.008.158-.146l.307-5.844a3.779,3.779,0,0,0,2.573-2.619q1.435-3.758-2.159-5.131Zm-.225,4.22a2.241,2.241,0,0,1-.811,1.2,1.354,1.354,0,0,1-1.149-.025l-.523-.2a.1.1,0,0,1-.066-.15l1.2-3.143a.1.1,0,0,1,.15-.066l.524.2a1.33,1.33,0,0,1,.871.756,2.255,2.255,0,0,1-.194,1.427Z" transform="translate(-473.649 -1056.308)" fill="#b7a34f"/>
  <path id="Trazado_49405" data-name="Trazado 49405" d="M689.9,1188.869l-3.009-.72a.172.172,0,0,0-.233.144l-2.968,12.413a.171.171,0,0,0,.144.233l2.088.5a.171.171,0,0,0,.233-.143l1.061-4.439a.1.1,0,0,1,.14-.086l.621.149q3.762.9,4.724-3.126t-2.8-4.924Zm.337,4.335a2.508,2.508,0,0,1-.669,1.381,1.294,1.294,0,0,1-1.149.152l-.546-.13a.1.1,0,0,1-.086-.14l.837-3.5a.1.1,0,0,1,.14-.086l.545.131a1.3,1.3,0,0,1,.957.656,2.51,2.51,0,0,1-.029,1.534Z" transform="translate(-636.41 -1105.988)" fill="#b7a34f"/>
  <path id="Trazado_49406" data-name="Trazado 49406" d="M868.251,1222.813a3.162,3.162,0,0,0-3.582,1.855,4.484,4.484,0,0,0-.355,1.235q-.134.794-.394,3.235t-.3,3.245a4.513,4.513,0,0,0,.086,1.284,3.658,3.658,0,0,0,6.692.714,4.57,4.57,0,0,0,.356-1.236q.132-.792.394-3.235t.3-3.245a4.443,4.443,0,0,0-.087-1.283,3.163,3.163,0,0,0-3.109-2.568Zm.342,6.823a26.214,26.214,0,0,1-.541,3.793.994.994,0,0,1-1.846-.2,53.859,53.859,0,0,1,.812-7.614.994.994,0,0,1,1.845.2A25.782,25.782,0,0,1,868.593,1229.636Z" transform="translate(-803.9 -1138.232)" fill="#b7a34f"/>
  <path id="Trazado_49407" data-name="Trazado 49407" d="M1045.237,1239.842a3.785,3.785,0,0,0,1.4-3.4q-.087-4.02-3.934-3.939l-3.131.067a.172.172,0,0,0-.19.2l.273,12.759a.172.172,0,0,0,.2.19l2.146-.047a.171.171,0,0,0,.189-.2l-.1-4.833a.1.1,0,0,1,.113-.119l.734-.015,1.6,4.956a.212.212,0,0,0,.215.151l2.32-.051c.115,0,.146-.067.092-.195Zm-1.453-1.922a1.351,1.351,0,0,1-1.075.409l-.56.013a.1.1,0,0,1-.119-.114l-.072-3.364a.1.1,0,0,1,.114-.118l.56-.012a1.334,1.334,0,0,1,1.092.373,3.174,3.174,0,0,1,.06,2.813Z" transform="translate(-967.511 -1147.285)" fill="#b7a34f"/>
  <path id="Trazado_49408" data-name="Trazado 49408" d="M1220.662,1216.464a.205.205,0,0,0-.239-.16l-2.256.341c-.1.015-.162.089-.181.223l-.922,13.047c-.006.132.054.188.181.169l2.123-.321a.206.206,0,0,0,.181-.223l.084-2.418,2.466-.373.776,2.287a.2.2,0,0,0,.239.16l2.123-.321c.127-.019.169-.091.124-.214Zm-.965,8.614.178-4.643.058-.008,1.5,4.387-1.74.263Z" transform="translate(-1132.911 -1132.201)" fill="#b7a34f"/>
  <path id="Trazado_49409" data-name="Trazado 49409" d="M1340.98,1179.788a.1.1,0,0,1,.082-.142l2-.54a.172.172,0,0,0,.137-.238l-.5-1.829a.171.171,0,0,0-.236-.136l-6.663,1.8a.171.171,0,0,0-.136.238l.495,1.83a.17.17,0,0,0,.237.136l2-.54a.1.1,0,0,1,.142.082l2.757,10.191a.171.171,0,0,0,.238.136l2.071-.56a.171.171,0,0,0,.136-.237l-2.757-10.193Z" transform="translate(-1243.3 -1095.517)" fill="#b7a34f"/>
  <path id="Trazado_49410" data-name="Trazado 49410" d="M1489.172,1146.233a.171.171,0,0,0-.25-.112l-2,.767a.171.171,0,0,0-.112.249l4.559,11.921a.171.171,0,0,0,.249.112l2.006-.767a.172.172,0,0,0,.112-.249Z" transform="translate(-1383.984 -1066.855)" fill="#b7a34f"/>
  <path id="Trazado_49411" data-name="Trazado 49411" d="M1599.95,1098.024q-.32-.736-1.433-2.926t-1.52-2.883a4.509,4.509,0,0,0-.771-1.029,3.658,3.658,0,0,0-6,3.051,4.519,4.519,0,0,0,.376,1.23q.32.736,1.433,2.926t1.52,2.883a4.538,4.538,0,0,0,.773,1.029,3.658,3.658,0,0,0,6-3.051,4.564,4.564,0,0,0-.376-1.23Zm-2.65,2.7a.865.865,0,0,1-1.117-.147,54.274,54.274,0,0,1-3.47-6.827.994.994,0,0,1,1.655-.841,54.537,54.537,0,0,1,3.471,6.826.864.864,0,0,1-.539.99Z" transform="translate(-1480.228 -1014.845)" fill="#b7a34f"/>
  <path id="Trazado_49412" data-name="Trazado 49412" d="M1722.855,987.917a.172.172,0,0,0-.27-.05l-1.514,1.04a.172.172,0,0,0-.049.27l4.674,6.807-.081.054-6.475-5.57a.254.254,0,0,0-.333-.006l-1.993,1.367a.172.172,0,0,0-.049.27l7.224,10.521a.17.17,0,0,0,.268.051l1.514-1.04a.171.171,0,0,0,.051-.268l-4.674-6.807.081-.055,6.554,5.516a.254.254,0,0,0,.333.006l1.914-1.313a.172.172,0,0,0,.051-.27l-7.224-10.521Z" transform="translate(-1598.02 -919.521)" fill="#b7a34f"/>
  <path id="Trazado_49413" data-name="Trazado 49413" d="M1952.57,904.146l5.6.027.02-5.589-5.588-.034Z" transform="translate(-1817.561 -836.42)" fill="#b7a34f"/>
  <path id="Trazado_49414" data-name="Trazado 49414" d="M35.678,51.676a64.357,64.357,0,0,1-18.016-20.33H7.053a73.937,73.937,0,0,0,3.716,6.885l-.032.032A73.869,73.869,0,0,0,35.678,63.026a73.159,73.159,0,0,0,9.454,4.793V0H0A74.045,74.045,0,0,0,.626,9.454H35.678V51.677Z" fill="#b7a34f"/>
  <path id="Trazado_49415" data-name="Trazado 49415" d="M1508.938,0a64.6,64.6,0,0,1-.7,9.454,64,64,0,0,1-25.525,42.223V0h-9.454V67.819a73.151,73.151,0,0,0,9.454-4.793,73.506,73.506,0,0,0,35.053-53.572A74.051,74.051,0,0,0,1518.393,0h-9.454Z" transform="translate(-1371.393)" fill="#b7a34f"/>
  <path id="Trazado_49416" data-name="Trazado 49416" d="M805.865,57.751V16.8c0-7.113-5.18-16.8-16.8-16.8H764.6V70.543a72.948,72.948,0,0,0,9.454,2.112,74.107,74.107,0,0,0,11.179.845q3.565,0,7.047-.333,1.362-.13,2.708-.308a11.339,11.339,0,0,0,3.907-1.207c5.29-2.859,7.114-9.107,6.97-13.9Zm-9.454-4.9c0,8.011-1.849,11.19-11.179,11.19a64.38,64.38,0,0,1-11.179-.992V9.454h12.27a10.087,10.087,0,0,1,10.087,10.087V52.856Z" transform="translate(-711.732)" fill="#b7a34f"/>
</svg>
