<svg id="Person" xmlns="http://www.w3.org/2000/svg" width="22.491" height="22.491" viewBox="0 0 22.491 22.491">
  <path id="Trazado_48480" data-name="Trazado 48480" d="M15.5,4a3.748,3.748,0,1,0,3.748,3.748A3.747,3.747,0,0,0,15.5,4ZM13.623,7.748A1.874,1.874,0,1,1,15.5,9.623,1.874,1.874,0,0,1,13.623,7.748Zm6.56,5.623H10.811A2.814,2.814,0,0,0,8,16.183a6.093,6.093,0,0,0,2.273,4.9A8.3,8.3,0,0,0,15.5,22.742a8.3,8.3,0,0,0,5.224-1.659,6.093,6.093,0,0,0,2.273-4.9A2.814,2.814,0,0,0,20.183,13.371Zm-9.371,1.874h9.371a.94.94,0,0,1,.937.937,4.218,4.218,0,0,1-1.57,3.439A6.441,6.441,0,0,1,15.5,20.868a6.441,6.441,0,0,1-4.053-1.246,4.218,4.218,0,0,1-1.57-3.439A.94.94,0,0,1,10.811,15.245Z" transform="translate(-4.252 -2.126)" fill=""/>
  <path id="Trazado_48481" data-name="Trazado 48481" d="M0,0H22.491V22.491H0Z" fill="none"/>
</svg>
