<svg xmlns="http://www.w3.org/2000/svg" width="17.447" height="18.195" viewBox="0 0 17.447 18.195">
  <path id="Trazado_49390" data-name="Trazado 49390" d="M15.473,12.073a3.034,3.034,0,1,0,3.034,3.034A3.037,3.037,0,0,0,15.473,12.073Zm-1.517,3.034a1.517,1.517,0,1,1,1.517,1.517A1.515,1.515,0,0,1,13.956,15.108Zm5.487-5.467a1.073,1.073,0,0,1-1.249-.86L17.8,6.632a.535.535,0,0,0-.415-.425,9.362,9.362,0,0,0-3.823,0,.528.528,0,0,0-.415.43l-.394,2.144a.8.8,0,0,1-.046.167,1.078,1.078,0,0,1-1.376.652L9.269,8.862a.538.538,0,0,0-.576.147,9.088,9.088,0,0,0-1.917,3.3.534.534,0,0,0,.167.571l1.669,1.416a.95.95,0,0,1,.126.121,1.063,1.063,0,0,1-.126,1.507L6.942,17.338a.534.534,0,0,0-.167.571,9.088,9.088,0,0,0,1.917,3.3.538.538,0,0,0,.576.147l2.063-.738.172-.046a1.077,1.077,0,0,1,1.249.865l.394,2.144a.528.528,0,0,0,.415.43,9.362,9.362,0,0,0,3.823,0,.535.535,0,0,0,.415-.43l.394-2.144a.954.954,0,0,1,.046-.172,1.079,1.079,0,0,1,1.376-.647l2.063.738a.538.538,0,0,0,.576-.147,9.088,9.088,0,0,0,1.917-3.3.541.541,0,0,0-.162-.571l-1.674-1.416a.95.95,0,0,1-.126-.121,1.063,1.063,0,0,1,.126-1.507l1.674-1.416a.541.541,0,0,0,.162-.571,9.088,9.088,0,0,0-1.917-3.3.538.538,0,0,0-.576-.147L19.615,9.6A1.711,1.711,0,0,1,19.443,9.641Zm-10.038.88,1.421.506a2.589,2.589,0,0,0,3.307-1.563,2.225,2.225,0,0,0,.111-.41l.268-1.472a8.326,8.326,0,0,1,1.922,0L16.7,9.054a2.6,2.6,0,0,0,3.014,2.083,2.286,2.286,0,0,0,.4-.111l1.421-.506a7.439,7.439,0,0,1,.961,1.644l-1.148.971a2.584,2.584,0,0,0-.3,3.651,2.724,2.724,0,0,0,.3.293l1.148.971a7.439,7.439,0,0,1-.961,1.644l-1.421-.506a2.589,2.589,0,0,0-3.307,1.563,2.225,2.225,0,0,0-.111.41l-.268,1.472a8.326,8.326,0,0,1-1.922,0l-.268-1.472a2.6,2.6,0,0,0-3.014-2.083,2.286,2.286,0,0,0-.4.111l-1.421.506a7.439,7.439,0,0,1-.961-1.644l1.148-.971a2.584,2.584,0,0,0,.3-3.651,2.333,2.333,0,0,0-.3-.293l-1.148-.971A7.439,7.439,0,0,1,9.405,10.521Z" transform="translate(-6.75 -6.01)" fill="#b7a44f"/>
</svg>
