<svg xmlns="http://www.w3.org/2000/svg" width="21.836" height="15.597" viewBox="0 0 21.836 15.597">
  <path id="Trazado_49424" data-name="Trazado 49424" d="M15.478,15.239a3.119,3.119,0,1,1-3.119-3.119A3.122,3.122,0,0,1,15.478,15.239Zm-1.56,0a1.56,1.56,0,1,0-1.56,1.56A1.558,1.558,0,0,0,13.918,15.239ZM3,10.95A1.95,1.95,0,0,1,4.95,9H19.767a1.95,1.95,0,0,1,1.95,1.95v8.579a1.95,1.95,0,0,1-1.95,1.95H4.95A1.95,1.95,0,0,1,3,19.528Zm1.95-.39a.393.393,0,0,0-.39.39v1.17h.78a.779.779,0,0,0,.78-.78v-.78Zm-.39,8.968a.393.393,0,0,0,.39.39h1.17v-.78a.779.779,0,0,0-.78-.78H4.56Zm3.119-.39v.78h9.358v-.78a2.336,2.336,0,0,1,2.34-2.34h.78V13.679h-.78a2.336,2.336,0,0,1-2.34-2.34v-.78H7.679v.78a2.336,2.336,0,0,1-2.34,2.34H4.56V16.8h.78A2.336,2.336,0,0,1,7.679,19.138Zm10.918.78h1.17a.393.393,0,0,0,.39-.39v-1.17h-.78a.779.779,0,0,0-.78.78Zm1.56-7.8V10.95a.393.393,0,0,0-.39-.39H18.6v.78a.779.779,0,0,0,.78.78ZM8.459,24.6A2.339,2.339,0,0,1,6.234,22.98a4.01,4.01,0,0,0,.665.057H19.767a3.508,3.508,0,0,0,3.509-3.509V12.255a2.332,2.332,0,0,1,1.56,2.2v5.069A5.072,5.072,0,0,1,19.767,24.6Z" transform="translate(-3 -9)" fill="#b7a44f"/>
</svg>
