<svg xmlns="http://www.w3.org/2000/svg" width="12.078" height="16.305" viewBox="0 0 12.078 16.305">
  <path id="Trazado_49392" data-name="Trazado 49392" d="M15.039,16.578a1.208,1.208,0,1,0-1.208-1.208A1.206,1.206,0,0,0,15.039,16.578Zm0-10.87a1.809,1.809,0,0,0-1.812,1.812V9.935h6.039a1.809,1.809,0,0,1,1.812,1.812v7.247A1.809,1.809,0,0,1,19.266,20.8H10.812A1.809,1.809,0,0,1,9,18.993V11.747a1.809,1.809,0,0,1,1.812-1.812h1.208V7.519a3.019,3.019,0,0,1,6.039,0,.6.6,0,1,1-1.208,0A1.809,1.809,0,0,0,15.039,5.708Zm-4.227,5.435a.6.6,0,0,0-.6.6v7.247a.6.6,0,0,0,.6.6h8.454a.6.6,0,0,0,.6-.6V11.747a.6.6,0,0,0-.6-.6Z" transform="translate(-9 -4.5)" fill="#b7a44f"/>
</svg>
