<svg xmlns="http://www.w3.org/2000/svg" width="18.071" height="21.082" viewBox="0 0 18.071 21.082">
  <path id="Trazado_49428" data-name="Trazado 49428" d="M7.882,4.506a.376.376,0,0,0-.376.376v12.8a.376.376,0,0,0,.376.376h2.635v1.506H7.882A1.883,1.883,0,0,1,6,17.682V4.882A1.883,1.883,0,0,1,7.882,3h6.781a1.883,1.883,0,0,1,1.882,1.882V7.894a.373.373,0,0,0,.376.376h.748a1.876,1.876,0,0,1,1.877,1.8,3.009,3.009,0,0,0-2.284-.3h-.341A1.878,1.878,0,0,1,15.04,7.889V4.882a.373.373,0,0,0-.376-.376Zm11.189,7.078a1.5,1.5,0,0,0-2.048,0l-4.277,3.971a2.248,2.248,0,0,0-.723,1.656v5.366a1.507,1.507,0,0,0,1.506,1.506h2.259a1.51,1.51,0,0,0,1.506-1.506V21.071H18.8v1.506a1.507,1.507,0,0,0,1.506,1.506h2.259a1.51,1.51,0,0,0,1.506-1.506V17.211a2.248,2.248,0,0,0-.723-1.656Zm-5.3,5.075,4.277-3.976,4.277,3.976a.759.759,0,0,1,.241.552v5.366H20.306V21.071A1.507,1.507,0,0,0,18.8,19.565H17.294a1.5,1.5,0,0,0-1.506,1.506v1.506H13.529V17.211A.741.741,0,0,1,13.77,16.658ZM10.518,6.765a.753.753,0,1,1-.753-.753A.752.752,0,0,1,10.518,6.765Zm-.753,3.765a.753.753,0,1,0-.753-.753A.752.752,0,0,0,9.765,10.529Zm.753,2.259a.753.753,0,1,1-.753-.753A.752.752,0,0,1,10.518,12.788Zm2.259-5.271a.753.753,0,1,0-.753-.753A.752.752,0,0,0,12.776,7.518Zm.753,2.259a.753.753,0,1,1-.753-.753A.752.752,0,0,1,13.529,9.776Zm-.753,3.765a.753.753,0,1,0-.753-.753A.752.752,0,0,0,12.776,13.541Z" transform="translate(-6 -3)" fill="#b7a44f"/>
</svg>
