<svg id="flat_1684019" xmlns="http://www.w3.org/2000/svg" width="47.608" height="55.116" viewBox="0 0 47.608 55.116">
  <path id="Trazado_49437" data-name="Trazado 49437" d="M74.668,102.5H77.9v4.593H74.668Zm0,0" transform="translate(-66.63 -91.466)" fill="#b7a44f"/>
  <path id="Trazado_49438" data-name="Trazado 49438" d="M149.332,102.5h3.229v4.593h-3.229Zm0,0" transform="translate(-133.257 -91.466)" fill="#b7a44f"/>
  <path id="Trazado_49439" data-name="Trazado 49439" d="M74.668,187.832H77.9v4.593H74.668Zm0,0" transform="translate(-66.63 -167.612)" fill="#b7a44f"/>
  <path id="Trazado_49440" data-name="Trazado 49440" d="M149.332,187.832h3.229v4.593h-3.229Zm0,0" transform="translate(-133.257 -167.612)" fill="#b7a44f"/>
  <path id="Trazado_49441" data-name="Trazado 49441" d="M74.668,273.168H77.9v4.593H74.668Zm0,0" transform="translate(-66.63 -243.762)" fill="#b7a44f"/>
  <path id="Trazado_49442" data-name="Trazado 49442" d="M149.332,273.168h3.229v4.593h-3.229Zm0,0" transform="translate(-133.257 -243.762)" fill="#b7a44f"/>
  <path id="Trazado_49443" data-name="Trazado 49443" d="M74.668,358.5H77.9v4.593H74.668Zm0,0" transform="translate(-66.63 -319.908)" fill="#b7a44f"/>
  <path id="Trazado_49444" data-name="Trazado 49444" d="M149.332,358.5h3.229v4.593h-3.229Zm0,0" transform="translate(-133.257 -319.908)" fill="#b7a44f"/>
  <path id="Trazado_49445" data-name="Trazado 49445" d="M292.664,187.832h3.229v4.593h-3.229Zm0,0" transform="translate(-261.159 -167.612)" fill="#b7a44f"/>
  <path id="Trazado_49446" data-name="Trazado 49446" d="M292.664,273.168h3.229v4.593h-3.229Zm0,0" transform="translate(-261.159 -243.762)" fill="#b7a44f"/>
  <path id="Trazado_49447" data-name="Trazado 49447" d="M42.172,49.024a7.049,7.049,0,0,0-.01-13.727V11h-14.8V4.6H24.738V0H2.621V4.6H0v50.52L47.545,55.1V51.868H42.172ZM5.851,3.229H21.509v4.6H24.13V51.869H3.229V7.826H5.851Zm21.509,11H38.933V35.3a7.049,7.049,0,0,0,0,13.72v2.846H27.359ZM44.379,42.162a3.822,3.822,0,1,1-3.822-3.822A3.826,3.826,0,0,1,44.379,42.162Zm0,0" fill="#b7a44f"/>
</svg>
