<svg xmlns="http://www.w3.org/2000/svg" width="49.304" height="57.423" viewBox="0 0 49.304 57.423">
  <g id="growth_5660928" transform="translate(-36.196)">
    <path id="Trazado_49448" data-name="Trazado 49448" d="M77.033,34.575a8.482,8.482,0,0,0-8.116,6.057,8.424,8.424,0,0,0-2.4-.1V26.972H59.769V21.98h2.8a5.965,5.965,0,0,0,5.958-5.958v-3.8H62.37a5.921,5.921,0,0,0-2.6.6V9.758h2.8A5.965,5.965,0,0,0,68.529,3.8V0H62.37a5.94,5.94,0,0,0-4.28,1.819A5.94,5.94,0,0,0,53.811,0H47.653V3.8a5.965,5.965,0,0,0,5.958,5.958h2.8v3.063a5.921,5.921,0,0,0-2.6-.6H47.653v3.8a5.965,5.965,0,0,0,5.958,5.958h2.8v4.992H49.662V40.49H36.2V57.423H67.381A8.48,8.48,0,0,0,75.5,51.367a8.466,8.466,0,1,0,1.537-16.792ZM62.37,3.357h2.8V3.8a2.6,2.6,0,0,1-2.6,2.6h-2.8V5.958a2.6,2.6,0,0,1,2.6-2.6ZM53.611,6.4a2.6,2.6,0,0,1-2.6-2.6V3.357h2.8a2.6,2.6,0,0,1,2.6,2.6V6.4Zm8.76,9.178h2.8v.443a2.6,2.6,0,0,1-2.6,2.6h-2.8V18.18a2.6,2.6,0,0,1,2.6-2.6Zm-8.76,3.044a2.6,2.6,0,0,1-2.6-2.6v-.443h2.8a2.6,2.6,0,0,1,2.6,2.6v.443Zm5.48,28.615H53.054V43.846h7.582A8.433,8.433,0,0,0,59.09,47.238Zm4.073-6.749H53.018V37.232H63.163V40.49Zm0-10.161v3.547H53.018V30.329Zm-13.5,13.518v3.392H39.553V43.846ZM39.553,54.066V50.595H49.662v3.471Zm13.466,0V50.595h6.057a8.431,8.431,0,0,0,1.561,3.471Zm14.363,0a5.11,5.11,0,1,1,5.11-5.11A5.116,5.116,0,0,1,67.381,54.066Zm9.652-5.915A5.113,5.113,0,0,1,75.792,48a8.474,8.474,0,0,0-3.74-6.1,5.11,5.11,0,1,1,4.981,6.252Z" fill="#b7a44f"/>
  </g>
</svg>
