<svg xmlns="http://www.w3.org/2000/svg" width="60.958" height="57.423" viewBox="0 0 60.958 57.423">
  <g id="team_11087946" transform="translate(-13.5 -28.265)">
    <path id="Línea_94" data-name="Línea 94" d="M1.5,14.451h-3V0h3Z" transform="translate(43.903 47.906)" fill="#b7a44f"/>
    <path id="Elipse_151" data-name="Elipse 151" d="M5.381-1.5A6.881,6.881,0,1,1-1.5,5.381,6.889,6.889,0,0,1,5.381-1.5Zm0,10.762A3.881,3.881,0,1,0,1.5,5.381,3.885,3.885,0,0,0,5.381,9.262Z" transform="translate(38.676 29.765)" fill="#b7a44f"/>
    <path id="Línea_95" data-name="Línea 95" d="M1.5,14.429h-3V0h3Z" transform="translate(63.298 47.874)" fill="#b7a44f"/>
    <path id="Elipse_152" data-name="Elipse 152" d="M5.411-1.5A6.911,6.911,0,1,1-1.5,5.411,6.919,6.919,0,0,1,5.411-1.5Zm0,10.822A3.911,3.911,0,1,0,1.5,5.411,3.915,3.915,0,0,0,5.411,9.322Z" transform="translate(57.887 29.837)" fill="#b7a44f"/>
    <path id="Línea_96" data-name="Línea 96" d="M1.5,14.429h-3V0h3Z" transform="translate(24.66 47.874)" fill="#b7a44f"/>
    <path id="Elipse_153" data-name="Elipse 153" d="M5.411-1.5A6.911,6.911,0,1,1-1.5,5.411,6.919,6.919,0,0,1,5.411-1.5Zm0,10.822A3.911,3.911,0,1,0,1.5,5.411,3.915,3.915,0,0,0,5.411,9.322Z" transform="translate(19.249 29.837)" fill="#b7a44f"/>
    <path id="Trazado_49435" data-name="Trazado 49435" d="M191.555,217.814H179.1L177.817,199.6l-3.211-3.211,2.121-2.121,4,4,1.164,16.54h6.863l1.164-16.54,3.564-3.564V180h3v15.953l-3.65,3.65Z" transform="translate(-141.348 -132.126)" fill="#b7a44f"/>
    <path id="Trazado_49436" data-name="Trazado 49436" d="M69.526,217.814H57.07L55.789,199.6l-3.211-3.211,2.121-2.121,4,4,1.164,16.54H66.73l1.164-16.54,3.564-3.564V181.5H35.819v14.453l-3.65,3.65-1.281,18.211H18.432L17.15,199.6l-3.65-3.65V178.5H74.458v17.453l-3.65,3.65Zm-48.3-3h6.863l1.164-16.54,3.564-3.564V181.5H16.5v13.21l3.564,3.564Z" transform="translate(0 -132.126)" fill="#b7a44f"/>
  </g>
</svg>
