<svg xmlns="http://www.w3.org/2000/svg" width="48.265" height="60.592" viewBox="0 0 48.265 60.592">
  <g id="ticket_9420339" transform="translate(-65.122 -13.5)">
    <g id="Grupo_13834" data-name="Grupo 13834" transform="translate(66.622 15)">
      <g id="Grupo_13833" data-name="Grupo 13833" transform="translate(0 0)">
        <g id="Grupo_13832" data-name="Grupo 13832">
          <path id="Trazado_49449" data-name="Trazado 49449" d="M86.253,74.092,81.346,71.7l-4.907,2.394-4.992-2.435L65.122,73.97V34.286a5.948,5.948,0,0,1,5.941-5.941h9.184V13.5h33.14V50.79a5.541,5.541,0,0,1-11.082,0V33.714a2.368,2.368,0,1,0-4.737,0V73.971l-6.323-2.314ZM71.614,68.4l4.824,2.353,4.907-2.394,4.908,2.394L91.076,68.4l3.491,1.278V33.714a5.346,5.346,0,0,1,.548-2.368H71.063a2.944,2.944,0,0,0-2.941,2.941V69.678ZM99.936,28.345a5.375,5.375,0,0,1,5.368,5.368V50.79a2.541,2.541,0,0,0,5.082,0V16.5H83.247V28.345Z" transform="translate(-66.622 -15)" fill="#b7a44f"/>
        </g>
        <path id="Línea_94" data-name="Línea 94" d="M11.778,1.5H0v-3H11.778Z" transform="translate(29.446 39.832)" fill="#b7a44f"/>
      </g>
    </g>
    <g id="Grupo_13835" data-name="Grupo 13835" transform="translate(79.443 61.452)">
      <path id="Línea_95" data-name="Línea 95" d="M10.616,1.5H0v-3H10.616Z" fill="#b7a44f"/>
    </g>
    <g id="Grupo_13836" data-name="Grupo 13836" transform="translate(87.518 22.616)">
      <path id="Línea_96" data-name="Línea 96" d="M7.314,1.5H0v-3H7.314Z" fill="#b7a44f"/>
      <path id="Línea_97" data-name="Línea 97" d="M7.417,1.5H0v-3H7.417Z" transform="translate(10.906)" fill="#b7a44f"/>
    </g>
    <g id="Grupo_13837" data-name="Grupo 13837" transform="translate(72.235 54.269)">
      <path id="Línea_98" data-name="Línea 98" d="M3.592,1.5H0v-3H3.592Z" fill="#b7a44f"/>
      <path id="Línea_99" data-name="Línea 99" d="M10.616,1.5H0v-3H10.616Z" transform="translate(7.208)" fill="#b7a44f"/>
    </g>
    <g id="Grupo_13838" data-name="Grupo 13838" transform="translate(72.235 47.085)">
      <path id="Línea_100" data-name="Línea 100" d="M3.592,1.5H0v-3H3.592Z" fill="#b7a44f"/>
      <path id="Línea_101" data-name="Línea 101" d="M10.616,1.5H0v-3H10.616Z" transform="translate(7.208)" fill="#b7a44f"/>
    </g>
    <g id="Grupo_13839" data-name="Grupo 13839" transform="translate(72.235 39.902)">
      <path id="Línea_102" data-name="Línea 102" d="M3.592,1.5H0v-3H3.592Z" fill="#b7a44f"/>
      <path id="Línea_103" data-name="Línea 103" d="M10.616,1.5H0v-3H10.616Z" transform="translate(7.208)" fill="#b7a44f"/>
    </g>
  </g>
</svg>
