<svg xmlns="http://www.w3.org/2000/svg" width="60.958" height="45.962" viewBox="0 0 60.958 45.962">
  <path id="Trazado_49436" data-name="Trazado 49436" d="M54.781,27.482h6.177L40.862,9.333l-20.1,18.149h6.177V42.408h-11V15.161a5.63,5.63,0,0,1,8.828,3.807l3.518-.5a9.2,9.2,0,0,0-11.177-7.66,5.633,5.633,0,0,1,8.894-2.068L28.34,6.055a9.2,9.2,0,0,0-12.393.3V0H12.393V6.352A9.2,9.2,0,0,0,0,6.055L2.331,8.737a5.633,5.633,0,0,1,8.9,2.075,9.2,9.2,0,0,0-11.2,7.653l3.518.5a5.63,5.63,0,0,1,8.852-3.789v27.23H.133v3.554H60.783V42.408h-6V27.482ZM40.862,14.121l10.859,9.807H30ZM42.8,42.408h-3.87V35.063H42.8Zm3.554,0V31.51H35.374v10.9H30.5V27.482h20.73V42.408Zm0,0" fill="#b7a44f"/>
</svg>
