<svg xmlns="http://www.w3.org/2000/svg" width="57.423" height="57.423" viewBox="0 0 57.423 57.423">
  <path id="Unión_5" data-name="Unión 5" d="M2258.954,57.423V52.637h-4.785V42.1h4.785V36.7a14,14,0,0,1,3.252-26.048,13.54,13.54,0,0,0-25.528,5.466l10.93,11.939V57.423H2222V28.043l11.312-11.986a16.907,16.907,0,0,1,32.442-5.772A14,14,0,0,1,2271.89,36.7V57.423Zm-1.421-8.151h4.786v4.786h6.2V34.519l1.03-.434a10.636,10.636,0,1,0-8.263,0l1.028.434V45.46h-4.786ZM2225.365,29.38V54.059h18.879V29.365l-9.29-10.146Zm7.089,19.668V45.684h4.7v3.364Zm-3.828-7.066V33.593l6.178-6.038,6.18,6.038v8.389Zm3.365-6.973v3.609h5.629V35.009L2234.8,32.26ZM2259.534,24.4a5.888,5.888,0,1,1,5.887,5.889A5.894,5.894,0,0,1,2259.534,24.4Zm3.365,0a2.524,2.524,0,1,0,2.523-2.523A2.526,2.526,0,0,0,2262.9,24.4Z" transform="translate(-2222)" fill="#b7a44f"/>
</svg>
